<svg width="548" height="122" viewBox="0 0 548 122" fill="none" xmlns="http://www.w3.org/2000/svg">
<path d="M7.84613 107.542H70.0436V86.9134H33.4307V15.4537H7.84613V107.542Z" fill="#003D89"/>
<path d="M144.429 50.4298H110.213V35.5374H146.549V15.4537H84.6285V107.542H148.523V87.3264H110.213V70.3814H144.429V50.4298Z" fill="#003D89"/>
<path fill-rule="evenodd" clip-rule="evenodd" d="M208.918 89.5111C196.482 89.5111 188.982 77.8936 188.982 61.5021C188.982 45.5111 196.624 33.4931 208.918 33.4931C221.216 33.4931 228.569 45.5111 228.569 61.3617C228.569 78.0299 221.358 89.5111 208.918 89.5111ZM208.072 109.05C237.335 109.05 255.709 90.1925 255.709 60.5481C255.709 35.9504 240.159 13.9504 209.479 13.9504C180.22 13.9504 162.127 35.2648 162.127 62.0472C162.127 87.5989 178.389 109.05 207.929 109.05H208.072Z" fill="#003D89"/>
<path fill-rule="evenodd" clip-rule="evenodd" d="M294.092 107.542V84.8649C294.092 69.9684 293.815 56.0382 293.099 43.6031H293.668C298.19 54.8034 304.554 67.1022 309.784 76.9355L325.899 107.542H352.757V15.4537H329.431V37.177C329.431 50.9832 329.996 63.8231 331.413 75.9857H330.989C326.745 65.1901 320.954 53.0275 316.006 43.7394L300.88 15.4537H270.766V107.542H294.092Z" fill="#003D89"/>
<path d="M374.557 107.542H400.154V15.4537H374.557V107.542Z" fill="#003D89"/>
<path d="M440.188 12H540.812C544.782 12 548 15.2235 548 19.2C548 23.1764 544.782 26.4 540.812 26.4H447.375V93.6H540.812C544.782 93.6 548 96.8236 548 100.8C548 104.776 544.782 108 540.812 108H440.188C436.218 108 433 104.776 433 100.8V19.2C433 15.2235 436.218 12 440.188 12ZM521.646 52.8C525.615 52.8 528.833 56.0236 528.833 60C528.833 63.9764 525.615 67.2 521.646 67.2H473.729C469.76 67.2 466.542 63.9764 466.542 60C466.542 56.0236 469.76 52.8 473.729 52.8H521.646Z" fill="white"/>
<path fill-rule="evenodd" clip-rule="evenodd" d="M541.893 54.8966C545.262 58.2653 545.262 63.7272 541.893 67.0959L493.096 115.893C489.727 119.262 484.265 119.262 480.897 115.893L471.747 106.744L432.1 67.0959C428.731 63.7272 428.731 58.2654 432.1 54.8966L441.249 45.7472L480.897 85.3947C484.265 88.7634 489.727 88.7634 493.096 85.3947L511.395 67.0959C514.763 63.7272 514.763 58.2653 511.395 54.8966L471.747 15.2491L480.897 6.09964C484.265 2.73091 489.727 2.7309 493.096 6.09964L532.744 45.7472L541.893 54.8966Z" fill="#5456A7"/>
<path fill-rule="evenodd" clip-rule="evenodd" d="M432.1 54.8966C428.731 58.2654 428.731 63.7272 432.1 67.0959L480.897 115.893C484.265 119.262 489.727 119.262 493.096 115.893L502.245 106.744L462.598 67.0959C459.229 63.7272 459.229 58.2654 462.598 54.8966L502.245 15.2491L493.096 6.09964C489.727 2.73091 484.265 2.73091 480.897 6.09964L432.1 54.8966Z" fill="#6669D3"/>
<path fill-rule="evenodd" clip-rule="evenodd" d="M493.096 6.09964C489.727 2.7309 484.265 2.73091 480.897 6.09964L432.1 54.8966C428.731 58.2654 428.731 63.7272 432.1 67.0959L441.249 76.2453L480.897 36.5978C484.265 33.2291 489.727 33.2291 493.096 36.5978L532.744 76.2453L541.893 67.0959C545.262 63.7272 545.262 58.2653 541.893 54.8966L493.096 6.09964Z" fill="#868AFF"/>
</svg>
