<svg width="471" height="69" viewBox="0 0 471 69" fill="none" xmlns="http://www.w3.org/2000/svg">
<path d="M30.1385 14.5157C25.0586 14.5157 21.1112 16.4247 18.2963 20.2427C15.5137 24.093 14.1223 29.4317 14.1223 36.2588C14.1223 50.4954 19.4611 57.6138 30.1385 57.6138C34.6684 57.6138 40.1041 56.4975 46.4459 54.2649V65.6218C41.2366 67.7897 35.3802 68.8736 28.8766 68.8736C19.5905 68.8736 12.4884 66.0586 7.57027 60.4287C2.65217 54.7664 0.193125 46.6775 0.193125 36.1618C0.0960568 26.1962 2.7816 18.1881 8.24975 12.1375C13.7503 6.0546 21.0465 3.07786 30.1385 3.20728C36.3509 3.20728 42.5956 4.71183 48.8726 7.72093L44.5045 18.7381C38.5834 15.9232 33.7947 14.5157 30.1385 14.5157ZM104.077 36.1618V68H90.73V39.4621C90.73 32.4408 88.1092 28.9302 82.8675 28.9302C79.1466 28.9302 76.4449 30.1921 74.7624 32.7159C73.1122 35.2396 72.2872 39.3488 72.2872 45.0435V68H58.9889V0.0525761H72.2872V13.8847C72.2872 16.3438 72.093 20.1941 71.7048 25.4358H72.3842C75.3286 20.6471 80.0526 18.2528 86.5561 18.2528C92.2508 18.2528 96.5865 19.7897 99.5632 22.8635C102.572 25.9373 104.077 30.3701 104.077 36.1618ZM147.279 38.0546C147.246 34.7867 146.405 32.2467 144.755 30.4348C143.105 28.6229 140.856 27.7169 138.009 27.7169C135.194 27.7169 132.977 28.6229 131.36 30.4348C129.742 32.2144 128.82 34.7543 128.593 38.0546H147.279ZM157.034 65.4277C152.439 67.725 146.712 68.8736 139.853 68.8736C131.991 68.8736 125.843 66.7219 121.41 62.4186C117.01 58.0829 114.81 51.8706 114.81 43.7816C114.81 35.6926 116.848 29.4156 120.925 24.9505C125.066 20.4853 130.648 18.2528 137.669 18.2528C144.723 18.2528 150.175 20.2265 154.025 24.1739C157.875 28.1213 159.8 33.5409 159.8 40.4328V46.8878H128.302C128.431 50.7058 129.548 53.6825 131.651 55.818C133.786 57.9211 136.731 58.9727 140.484 58.9727C146.082 58.9727 151.598 57.6946 157.034 55.1385V65.4277ZM190.495 68.8736C175.288 68.8736 167.685 60.5258 167.685 43.8301C167.685 35.547 169.739 29.2214 173.848 24.8534C177.99 20.453 183.927 18.2528 191.66 18.2528C197.226 18.2528 202.289 19.3529 206.851 21.5531L202.92 31.8908C198.099 29.9494 194.346 28.9788 191.66 28.9788C184.736 28.9788 181.274 33.8322 181.274 43.5389C181.274 53.2457 184.736 58.0991 191.66 58.0991C196.481 58.0991 201.044 56.6754 205.347 53.8281V65.2336C203.244 66.5925 201.092 67.5308 198.892 68.0485C196.724 68.5986 193.925 68.8736 190.495 68.8736ZM229.975 68H216.676V0.0525761H229.975V30.3377L229.295 41.452H229.489L235.265 34.0263L248.951 19.1749H263.997L244.583 40.3357L265.162 68H249.776L235.702 48.1982L229.975 52.8089V68ZM286.542 42.7624V68H273.244V4.12943H309.839V15.2437H286.542V31.6967H308.189V42.7624H286.542ZM334.6 0.0525761V68H321.301V0.0525761H334.6ZM376.926 32.5703C375.341 30.1759 372.785 28.9788 369.258 28.9788C365.731 28.9788 363.175 30.1759 361.59 32.5703C360.004 34.9323 359.212 38.5885 359.212 43.5389C359.212 48.457 360.02 52.1294 361.638 54.5561C363.256 56.9828 365.812 58.1962 369.307 58.1962C372.801 58.1962 375.341 56.9828 376.926 54.5561C378.544 52.1294 379.353 48.457 379.353 43.5389C379.353 38.5885 378.544 34.9323 376.926 32.5703ZM369.404 18.2528C376.49 18.1557 382.217 20.4368 386.585 25.0961C390.953 29.723 393.072 35.8544 392.943 43.4904C392.943 51.4499 390.839 57.6785 386.633 62.1759C382.459 66.6411 376.635 68.8736 369.161 68.8736C362.075 68.9383 356.348 66.6411 351.98 61.9818C347.644 57.3225 345.525 51.1587 345.622 43.4904C345.622 35.5308 347.693 29.3347 351.834 24.9019C356.008 20.4692 361.865 18.2528 369.404 18.2528ZM456.857 68H442.345L438.608 50.9161L433.512 29.367H433.221L424.291 68H409.973L396.092 19.1749H409.391L415.021 40.7725C415.862 44.364 416.768 49.7189 417.738 56.8372H418.03C418.127 54.4429 418.871 49.6866 420.262 42.5682L426.28 19.1749H440.938L446.665 42.5682C448.024 49.1041 448.768 53.8605 448.897 56.8372H449.14C449.399 55.0576 449.868 52.275 450.547 48.4894C451.227 44.6714 451.712 42.0991 452.003 40.7725L457.876 19.1749H470.932L456.857 68Z" fill="#003D89"/>
</svg>
